<svg data-v-0dd9719b="" version="1.0" xmlns="http://www.w3.org/2000/svg"
			xmlns:xlink="http://www.w3.org/1999/xlink" width="100%" height="100%" viewBox="0 0 210 45"
			preserveAspectRatio="xMidYMid meet" color-interpolation-filters="sRGB" style="margin: auto;">
			<g data-v-0dd9719b="" fill="#3c4352" class="basesvg"
				transform="translate(0, 5.28)">
				<g data-gra="path-name" fill-rule="" class="tp-name" transform="matrix(1,0,0,1,0,5.280646161157673)"
					opacity="1">
					<g transform="scale(1)">
						<g>
							<path
								d="M13.59 0.55C14.69 0.55 15.73 0.33 16.72-0.11 19.41-1.26 21.67-3.79 21.67-7.54L21.67-8.63 18.37-9.19 18.37-7.37C18.37-6.71 18.26-6.11 17.98-5.5 17.32-3.9 15.79-2.58 13.59-2.58L11.38-2.58C10.72-2.58 10.12-2.69 9.52-2.97 7.92-3.63 6.6-5.17 6.6-7.37L6.6-20.13C6.6-20.79 6.71-21.39 6.99-22 7.65-23.59 9.19-24.91 11.38-24.91L13.59-24.91C14.24-24.91 14.85-24.8 15.46-24.53 17.05-23.87 18.37-22.33 18.37-20.13L18.37-18.32 21.67-18.86 21.67-19.96C21.67-21.07 21.5-22.11 21.07-23.1 19.91-25.8 17.32-28.05 13.59-28.05L11.38-28.05C10.29-28.05 9.24-27.83 8.25-27.39 5.55-26.23 3.3-23.71 3.3-19.96L3.3-7.54C3.3-6.43 3.52-5.39 3.96-4.4 5.12-1.71 7.65 0.55 11.38 0.55ZM38.55 0.55C39.66 0.55 40.7 0.33 41.69-0.11 44.38-1.26 46.64-3.79 46.64-7.54L46.64-8.63 43.34-9.19 43.34-7.37C43.34-6.71 43.23-6.11 42.95-5.5 42.3-3.9 40.75-2.58 38.55-2.58L36.35-2.58C35.7-2.58 35.09-2.69 34.48-2.97 32.89-3.63 31.57-5.17 31.57-7.37L31.57-13.47 46.64-13.47 46.64-19.96C46.64-21.07 46.47-22.11 46.03-23.1 44.88-25.8 42.3-28.05 38.55-28.05L36.35-28.05C35.25-28.05 34.21-27.83 33.22-27.39 30.52-26.23 28.27-23.71 28.27-19.96L28.27-7.54C28.27-6.43 28.49-5.39 28.93-4.4 30.09-1.71 32.62 0.55 36.35 0.55ZM43.34-20.13L43.34-16.06 31.57-16.06 31.57-20.13C31.57-20.79 31.68-21.39 31.95-22 32.62-23.59 34.16-24.91 36.35-24.91L38.55-24.91C39.21-24.91 39.82-24.8 40.42-24.53 42.02-23.87 43.34-22.33 43.34-20.13ZM68.69-2.81L70.51 0 71.61 0 71.61-38.5 68.31-38.5 68.31-25.19C66.99-26.79 64.9-28.05 62.15-28.05L61.32-28.05C60.22-28.05 59.18-27.83 58.19-27.39 55.49-26.23 53.24-23.71 53.24-19.96L53.24-7.54C53.24-6.43 53.46-5.39 53.9-4.4 55.05-1.71 57.59 0.55 61.32 0.55L62.15 0.55C65.12 0.55 67.38-0.99 68.69-2.81ZM68.31-20.13L68.31-7.37C68.31-6.71 68.2-6.11 67.92-5.5 67.27-3.9 65.72-2.58 63.52-2.58L61.32-2.58C60.66-2.58 60.06-2.69 59.45-2.97 57.86-3.63 56.54-5.17 56.54-7.37L56.54-20.13C56.54-20.79 56.65-21.39 56.92-22 57.59-23.59 59.13-24.91 61.32-24.91L63.52-24.91C64.19-24.91 64.79-24.8 65.39-24.53 66.99-23.87 68.31-22.33 68.31-20.13ZM93.66-2.75L95.48 0 96.58 0 96.58-19.96C96.58-21.07 96.41-22.11 95.97-23.1 94.82-25.8 92.23-28.05 88.5-28.05L86.57-28.05C85.47-28.05 84.42-27.83 83.44-27.39 80.74-26.23 78.48-23.71 78.48-19.96L78.48-19.69 81.78-19.14 81.78-20.13C81.78-20.79 81.89-21.39 82.17-22 82.83-23.59 84.37-24.91 86.57-24.91L88.5-24.91C89.16-24.91 89.76-24.8 90.36-24.53 91.96-23.87 93.28-22.33 93.28-20.13L93.28-15.89 86.3-15.89C85.19-15.89 84.15-15.73 83.16-15.29 80.47-14.13 78.21-11.55 78.21-7.81L78.21-7.54C78.21-6.43 78.43-5.39 78.87-4.4 80.02-1.71 82.55 0.55 86.3 0.55L87.12 0.55C90.03 0.55 92.34-0.99 93.66-2.75ZM93.28-13.31L93.28-7.37C93.28-6.71 93.17-6.11 92.89-5.5 92.23-3.9 90.69-2.58 88.5-2.58L86.3-2.58C85.63-2.58 85.03-2.69 84.42-2.97 82.83-3.63 81.51-5.17 81.51-7.37L81.51-8.53C81.51-9.19 81.62-9.79 81.89-10.39 82.55-11.99 84.04-13.31 86.3-13.31ZM106.09-24.7L104.28-27.5 103.18-27.5 103.18 0 106.48 0 106.48-19.58C106.48-20.24 106.59-20.84 106.86-21.45 107.52-23.05 109.06-24.36 111.27-24.36L114.56-24.36 114.56-28.05 112.64-28.05C109.67-28.05 107.41-26.51 106.09-24.7ZM134.47-24.7L132.66-27.5 131.56-27.5 131.56 11 134.86 11 134.86-2.31C136.18-0.71 138.27 0.55 141.02 0.55L141.84 0.55C142.94 0.55 143.99 0.33 144.98-0.11 147.67-1.26 149.93-3.79 149.93-7.54L149.93-19.96C149.93-21.07 149.76-22.11 149.32-23.1 148.17-25.8 145.58-28.05 141.84-28.05L141.02-28.05C138.05-28.05 135.79-26.51 134.47-24.7ZM146.63-20.13L146.63-7.37C146.63-6.71 146.52-6.11 146.25-5.5 145.58-3.9 144.04-2.58 141.84-2.58L139.64-2.58C138.98-2.58 138.38-2.69 137.77-2.97 136.18-3.63 134.86-5.17 134.86-7.37L134.86-20.13C134.86-20.79 134.97-21.39 135.25-22 135.91-23.59 137.44-24.91 139.64-24.91L141.84-24.91C142.5-24.91 143.11-24.8 143.72-24.53 145.31-23.87 146.63-22.33 146.63-20.13ZM157.35-34.1L161.2-34.1 161.2-38.5 157.35-38.5ZM157.63 0L160.93 0 160.93-27.5 157.63-27.5ZM171.54-24.7L169.73-27.5 168.63-27.5 168.63 0 171.93 0 171.93-20.13C171.93-20.79 172.04-21.39 172.31-22 172.97-23.59 174.51-24.91 176.71-24.91L178.91-24.91C179.57-24.91 180.18-24.8 180.78-24.53 182.38-23.87 183.7-22.33 183.7-20.13L183.7 0 187 0 187-19.96C187-21.07 186.83-22.11 186.39-23.1 185.24-25.8 182.65-28.05 178.91-28.05L178.09-28.05C175.12-28.05 172.86-26.51 171.54-24.7ZM203.88 0.55C204.98 0.55 206.03 0.33 207.02-0.11 209.71-1.26 211.97-3.79 211.97-7.54L211.97-8.63 208.67-9.19 208.67-7.37C208.67-6.71 208.56-6.11 208.28-5.5 207.62-3.9 206.08-2.58 203.88-2.58L201.68-2.58C201.02-2.58 200.42-2.69 199.81-2.97 198.22-3.63 196.9-5.17 196.9-7.37L196.9-13.47 211.97-13.47 211.97-19.96C211.97-21.07 211.8-22.11 211.36-23.1 210.21-25.8 207.62-28.05 203.88-28.05L201.68-28.05C200.58-28.05 199.54-27.83 198.55-27.39 195.85-26.23 193.6-23.71 193.6-19.96L193.6-7.54C193.6-6.43 193.82-5.39 194.26-4.4 195.41-1.71 197.94 0.55 201.68 0.55ZM208.67-20.13L208.67-16.06 196.9-16.06 196.9-20.13C196.9-20.79 197.01-21.39 197.28-22 197.94-23.59 199.48-24.91 201.68-24.91L203.88-24.91C204.54-24.91 205.15-24.8 205.75-24.53 207.35-23.87 208.67-22.33 208.67-20.13Z"
								transform="translate(-3.299999952316284, 38.5)"></path>
						</g>
						<!----> <!----> <!----> <!----> <!----> <!----> <!---->
					</g>
				</g>

				<g data-gra="path-slogan" fill-rule="" class="tp-slogan" fill="#ebb919"
					transform="translate(5, 67.55)" opacity="1">
					<rect x="0" y="3.58" width="84.26" height="1" />
    <rect x="114.4" y="3.58" width="84.26" height="1" />
					<g transform="translate(87.26, 0)">
						<g transform="scale(1)">
							<path
								d="M1.08-7.87L1.08 0L5.52 0L5.52-0.85L2.08-0.85L2.08-7.87ZM10.30-3.20L7.93-3.20L8.30-4.40C8.45-4.84 8.58-5.28 8.71-5.72C8.84-6.15 8.96-6.60 9.08-7.06L9.13-7.06C9.26-6.60 9.39-6.15 9.52-5.72C9.64-5.28 9.78-4.84 9.92-4.40ZM10.55-2.40L11.29 0L12.36 0L9.70-7.87L8.57-7.87L5.90 0L6.92 0L7.68-2.40ZM13.48-7.87L13.48 0L15.98 0C16.42 0 16.83-0.05 17.20-0.14C17.56-0.24 17.88-0.38 18.14-0.58C18.41-0.77 18.61-1.01 18.76-1.30C18.90-1.58 18.97-1.92 18.97-2.30C18.97-2.85 18.81-3.28 18.49-3.59C18.17-3.90 17.72-4.10 17.15-4.19L17.15-4.24C17.61-4.36 17.96-4.57 18.18-4.89C18.40-5.21 18.52-5.56 18.52-5.95C18.52-6.30 18.45-6.59 18.32-6.83C18.19-7.08 18.00-7.28 17.77-7.43C17.53-7.58 17.25-7.69 16.91-7.76C16.58-7.84 16.22-7.87 15.82-7.87ZM15.64-4.51L14.47-4.51L14.47-7.08L15.68-7.08C16.30-7.08 16.76-6.99 17.07-6.80C17.38-6.61 17.53-6.30 17.53-5.87C17.53-5.43 17.39-5.09 17.09-4.86C16.80-4.63 16.32-4.51 15.64-4.51ZM15.84-0.79L14.47-0.79L14.47-3.77L15.84-3.77C16.54-3.77 17.07-3.65 17.44-3.43C17.80-3.20 17.99-2.84 17.99-2.35C17.99-1.82 17.80-1.42 17.42-1.17C17.05-0.92 16.52-0.79 15.84-0.79ZM20.39-1.72L19.79-1.02C20.13-0.66 20.54-0.38 21.01-0.17C21.48 0.04 22.00 0.14 22.55 0.14C22.96 0.14 23.34 0.09 23.66-0.03C23.99-0.15 24.27-0.31 24.50-0.51C24.74-0.71 24.91-0.95 25.04-1.22C25.16-1.50 25.22-1.79 25.22-2.10C25.22-2.39 25.18-2.64 25.10-2.86C25.01-3.08 24.90-3.27 24.76-3.44C24.61-3.60 24.44-3.75 24.24-3.87C24.04-3.99 23.83-4.10 23.60-4.20L22.49-4.68C22.33-4.74 22.17-4.81 22.02-4.89C21.87-4.97 21.73-5.05 21.60-5.15C21.47-5.25 21.37-5.37 21.29-5.50C21.22-5.63 21.18-5.80 21.18-5.99C21.18-6.35 21.31-6.63 21.58-6.83C21.85-7.04 22.20-7.14 22.64-7.14C23.01-7.14 23.34-7.07 23.63-6.94C23.93-6.81 24.19-6.63 24.43-6.40L24.97-7.04C24.69-7.33 24.35-7.57 23.95-7.75C23.55-7.93 23.12-8.02 22.64-8.02C22.28-8.02 21.95-7.96 21.65-7.86C21.35-7.76 21.09-7.61 20.87-7.42C20.65-7.23 20.48-7.01 20.36-6.76C20.23-6.50 20.17-6.22 20.17-5.93C20.17-5.64 20.22-5.39 20.32-5.17C20.41-4.95 20.54-4.76 20.69-4.60C20.84-4.44 21.01-4.30 21.20-4.19C21.40-4.08 21.58-3.98 21.77-3.90L22.90-3.41C23.08-3.32 23.25-3.24 23.41-3.16C23.57-3.08 23.71-2.99 23.83-2.89C23.94-2.79 24.03-2.67 24.10-2.53C24.17-2.39 24.20-2.22 24.20-2.02C24.20-1.63 24.06-1.32 23.77-1.09C23.48-0.85 23.08-0.73 22.56-0.73C22.15-0.73 21.76-0.82 21.38-1.00C21.00-1.18 20.67-1.42 20.39-1.72Z"
								transform="translate(-1.08, 8.016)"></path>
						</g>
					</g>
				</g>
			</g>
			<defs v-gra="od"></defs>
		</svg>
		
		
		
		
		
